<svg width="116" height="24" viewBox="0 0 116 24" fill="none" xmlns="http://www.w3.org/2000/svg" xmlns:xlink="http://www.w3.org/1999/xlink">
<path d="M50.264 13.776V18H48.152V6.8H52.536C53.112 6.8 53.6133 6.896 54.04 7.088C54.4667 7.26933 54.8187 7.51467 55.096 7.824C55.384 8.12267 55.5973 8.46933 55.736 8.864C55.8853 9.248 55.96 9.64267 55.96 10.048V10.432C55.96 10.848 55.8853 11.2587 55.736 11.664C55.5973 12.0587 55.384 12.416 55.096 12.736C54.8187 13.0453 54.4667 13.296 54.04 13.488C53.6133 13.68 53.112 13.776 52.536 13.776H50.264ZM50.264 11.76H52.328C52.7973 11.76 53.1653 11.632 53.432 11.376C53.7093 11.12 53.848 10.7893 53.848 10.384V10.192C53.848 9.78667 53.7093 9.456 53.432 9.2C53.1653 8.944 52.7973 8.816 52.328 8.816H50.264V11.76ZM57.5649 11.152C57.5649 9.70133 57.9275 8.576 58.6529 7.776C59.3889 6.976 60.4022 6.576 61.6929 6.576C62.9835 6.576 63.9915 6.976 64.7169 7.776C65.4529 8.576 65.8209 9.70133 65.8209 11.152V13.648C65.8209 15.1413 65.4529 16.2773 64.7169 17.056C63.9915 17.8347 62.9835 18.224 61.6929 18.224C60.4022 18.224 59.3889 17.8347 58.6529 17.056C57.9275 16.2773 57.5649 15.1413 57.5649 13.648V11.152ZM61.6929 16.304C62.0769 16.304 62.3969 16.2453 62.6529 16.128C62.9089 16 63.1169 15.824 63.2769 15.6C63.4369 15.376 63.5489 15.1093 63.6129 14.8C63.6769 14.4907 63.7089 14.1493 63.7089 13.776V11.024C63.7089 10.672 63.6715 10.3413 63.5969 10.032C63.5222 9.72267 63.4049 9.456 63.2449 9.232C63.0849 9.008 62.8769 8.832 62.6209 8.704C62.3649 8.56533 62.0555 8.496 61.6929 8.496C61.3302 8.496 61.0209 8.56533 60.7649 8.704C60.5089 8.832 60.3009 9.008 60.1409 9.232C59.9809 9.456 59.8635 9.72267 59.7889 10.032C59.7142 10.3413 59.6769 10.672 59.6769 11.024V13.776C59.6769 14.1493 59.7089 14.4907 59.7729 14.8C59.8369 15.1093 59.9489 15.376 60.1089 15.6C60.2689 15.824 60.4769 16 60.7329 16.128C60.9889 16.2453 61.3089 16.304 61.6929 16.304ZM67.9058 6.8H70.0178V15.984H75.1058V18H67.9058V6.8ZM80.2306 14.064H79.7506L76.5346 6.8H78.8386L81.1426 12.144H81.4306L83.7346 6.8H86.0386L82.8226 14.064H82.3426V18H80.2306V14.064ZM86.9235 15.984H87.9795V8.816H86.9235V6.8H91.8355C92.3688 6.8 92.8382 6.87467 93.2435 7.024C93.6595 7.17333 94.0062 7.376 94.2835 7.632C94.5715 7.888 94.7848 8.19733 94.9235 8.56C95.0728 8.912 95.1475 9.296 95.1475 9.712V9.904C95.1475 10.544 94.9662 11.056 94.6035 11.44C94.2515 11.824 93.8035 12.0907 93.2595 12.24V12.528C93.8035 12.6773 94.2515 12.9493 94.6035 13.344C94.9662 13.728 95.1475 14.24 95.1475 14.88V15.072C95.1475 15.488 95.0728 15.8773 94.9235 16.24C94.7848 16.592 94.5715 16.9013 94.2835 17.168C94.0062 17.424 93.6595 17.6267 93.2435 17.776C92.8382 17.9253 92.3688 18 91.8355 18H86.9235V15.984ZM90.0915 15.984H91.6275C92.0755 15.984 92.4382 15.888 92.7155 15.696C92.9928 15.504 93.1315 15.184 93.1315 14.736V14.64C93.1315 14.192 92.9928 13.872 92.7155 13.68C92.4382 13.488 92.0755 13.392 91.6275 13.392H90.0915V15.984ZM90.0915 11.376H91.6275C92.0755 11.376 92.4382 11.2853 92.7155 11.104C92.9928 10.912 93.1315 10.592 93.1315 10.144V10.048C93.1315 9.6 92.9928 9.28533 92.7155 9.104C92.4382 8.912 92.0755 8.816 91.6275 8.816H90.0915V11.376ZM97.2964 6.8H104.368V8.816H99.4084V11.376H104.176V13.392H99.4084V15.984H104.56V18H97.2964V6.8ZM106.645 6.8H114.709V8.816H111.733V18H109.621V8.816H106.645V6.8Z" fill="black"/>
<g id="Repeat group 1_inner" data-figma-trr="l6u0.2-0f">
<circle cx="10" cy="12" r="9.5" stroke="black"/>
</g>
<use xlink:href="#Repeat%20group%201_inner" transform="translate(4)"/>
<use xlink:href="#Repeat%20group%201_inner" transform="translate(8)"/>
<use xlink:href="#Repeat%20group%201_inner" transform="translate(12)"/>
<use xlink:href="#Repeat%20group%201_inner" transform="translate(16)"/>
<use xlink:href="#Repeat%20group%201_inner" transform="translate(20)"/>
<circle cx="30" cy="12" r="9.5" fill="black" stroke="black"/>
</svg>
